<?xml version="1.0" encoding="utf-8"?>
<!-- Generator: Adobe Illustrator 24.2.1, SVG Export Plug-In . SVG Version: 6.00 Build 0)  -->
<svg version="1.1" id="Layer_1" xmlns="http://www.w3.org/2000/svg" xmlns:xlink="http://www.w3.org/1999/xlink" x="0px" y="0px"
	 viewBox="0 0 65 59" style="enable-background:new 0 0 65 59;" xml:space="preserve">
<style type="text/css">
	.st0{fill-rule:evenodd;clip-rule:evenodd;fill:#D8EEEE;}
	.st1{fill:none;stroke:#171C34;stroke-linecap:round;stroke-linejoin:round;}
</style>
<g id="Agencies">
	<g id="Group" transform="translate(1.000000, -5.177462)">
		<circle id="Oval" class="st0" cx="41.5" cy="41.5" r="22.5"/>
		<g id="Icon" transform="translate(0.011934, 4.930000)">
			<path id="Path" class="st1" d="M24,17.6c-2.1,1-4.6,0.4-6-1.4c-1.4-1.8-1.4-4.4,0-6.2c1.4-1.8,3.9-2.4,6-1.4V0.9H4.2
				C3,1,1.9,1.6,1.1,2.5S-0.1,4.6,0,5.9v19.3h7.8c-1.4,2.1-1,4.9,0.8,6.6c1.9,1.7,4.7,1.7,6.6,0c1.9-1.7,2.2-4.5,0.8-6.6H24V17.6z"
				/>
			<path id="Path_1_" class="st1" d="M25.3,32c-0.4,0-0.8,0.1-1.2,0.2v-7.2h-7.9c1.4,2.1,1,4.9-0.8,6.5s-4.7,1.6-6.6,0
				S6.5,27,7.9,24.9H0v19.2c-0.1,1.2,0.3,2.4,1.1,3.3s1.9,1.5,3.1,1.6h19.9v-7.2c0.4,0.1,0.8,0.2,1.2,0.2c2.6-0.1,4.7-2.3,4.7-5
				S27.9,32.1,25.3,32L25.3,32z"/>
			<path id="Path_2_" class="st1" d="M43.9,0.9H24.1v7.5c-2.1-1-4.6-0.4-6,1.4s-1.4,4.3,0,6.1s3.9,2.4,6,1.4v7.5h7.5
				c-0.3-0.7-0.5-1.4-0.5-2.2c0.1-2.6,2.3-4.7,5-4.7s4.8,2.1,5,4.7c0,0.8-0.2,1.5-0.5,2.2H48V5.8C48.2,3.3,46.4,1.2,43.9,0.9z"/>
			<path id="Path_3_" class="st1" d="M40.4,24.8c0.3-0.7,0.5-1.4,0.5-2.2c-0.1-2.6-2.3-4.7-5-4.7c-2.6,0-4.8,2.1-5,4.7
				c0,0.8,0.2,1.5,0.5,2.2H24v7.2c0.4-0.1,0.8-0.2,1.2-0.2c2.6,0.1,4.7,2.3,4.7,5c0,2.6-2.1,4.8-4.7,5c-0.4,0-0.8-0.1-1.2-0.2v7.2
				h19.8c1.2-0.1,2.3-0.6,3.1-1.5c0.8-0.9,1.2-2.1,1.1-3.3V24.8H40.4z"/>
		</g>
	</g>
</g>
</svg>
