<?xml version="1.0" encoding="utf-8"?>
<!-- Generator: Adobe Illustrator 24.2.1, SVG Export Plug-In . SVG Version: 6.00 Build 0)  -->
<svg version="1.1" id="Layer_1" xmlns="http://www.w3.org/2000/svg" xmlns:xlink="http://www.w3.org/1999/xlink" x="0px" y="0px"
	 viewBox="0 0 65 61" style="enable-background:new 0 0 65 61;" xml:space="preserve">
<style type="text/css">
	.st0{fill:#F0E4FF;}
	.st1{fill:none;stroke:#31373A;stroke-linecap:round;stroke-linejoin:round;}
	.st2{fill:#171C34;}
</style>
<g id="Agencies">
	<g id="Group" transform="translate(1.000000, -3.000000)">
		<circle id="Oval" class="st0" cx="41.5" cy="41.5" r="22.5"/>
		<g id="Icon" transform="translate(0.000000, 4.000000)">
			<path id="Path" class="st1" d="M4.8,0h38c1.3,0,2.5,0.5,3.4,1.4c0.9,0.9,1.4,2.1,1.4,3.3v42.5H0V4.7c0-1.3,0.5-2.5,1.4-3.3
				S3.5,0,4.8,0z"/>
			<line id="Path_1_" class="st1" x1="0" y1="7.9" x2="47.7" y2="7.9"/>
			<ellipse id="Oval_1_" class="st2" cx="5.4" cy="4" rx="1.5" ry="1.4"/>
			<ellipse id="Oval_2_" class="st2" cx="10.2" cy="4" rx="1.5" ry="1.4"/>
			<ellipse id="Oval_3_" class="st2" cx="15.2" cy="4" rx="1.5" ry="1.4"/>
			<rect id="Rectangle" x="9" y="18.4" class="st1" width="29.4" height="7.5"/>
			<rect id="Rectangle_1_" x="9" y="30.7" class="st1" width="29.4" height="7.5"/>
			<line id="Path_2_" class="st1" x1="16.9" y1="18.4" x2="16.9" y2="25.8"/>
			<line id="Path_3_" class="st1" x1="16.9" y1="31" x2="16.9" y2="37.9"/>
		</g>
	</g>
</g>
</svg>
