<?xml version="1.0" encoding="utf-8"?>
<!-- Generator: Adobe Illustrator 24.2.1, SVG Export Plug-In . SVG Version: 6.00 Build 0)  -->
<svg version="1.1" id="Layer_1" xmlns="http://www.w3.org/2000/svg" xmlns:xlink="http://www.w3.org/1999/xlink" x="0px" y="0px"
	 viewBox="0 0 61 53" style="enable-background:new 0 0 61 53;" xml:space="preserve">
<style type="text/css">
	.st0{fill:#D6EBFE;}
	.st1{fill:none;stroke:#171C34;stroke-linecap:round;stroke-linejoin:round;}
	.st2{fill:none;stroke:#171C34;stroke-linejoin:round;}
</style>
<g id="Agencies">
	<g id="Group" transform="translate(1.000000, -11.000000)">
		<circle id="Oval" class="st0" cx="36.8" cy="40.7" r="22.5"/>
		<g id="Icon" transform="translate(0.000000, 12.000000)">
			<path id="Path" class="st1" d="M13.3,41.2H8.1c-3.8,0-6.9-3-6.9-6.8v-7.2"/>
			<path id="Rectangle" class="st1" d="M15.1,38.2h4.4c1,0,1.8,0.8,1.8,1.8v0.4c0,1-0.8,1.8-1.8,1.8h-4.4c-1,0-1.8-0.8-1.8-1.8V40
				C13.3,39,14.1,38.2,15.1,38.2z"/>
			<path id="Rectangle_1_" class="st1" d="M11,0.2h19.5c1,0,1.7,0.8,1.7,1.7v0.5c0,1-0.8,1.7-1.7,1.7H11c-1,0-1.7-0.8-1.7-1.7V2
				C9.3,1,10.1,0.2,11,0.2z"/>
			<path id="Path_1_" class="st2" d="M32.3,2.2h0.9c2.6,0,4.8,2.1,5.1,4.9l1.1,15.1"/>
			<path id="Path_2_" class="st2" d="M2.3,22.2L3.6,7.1c0.3-2.8,2.5-4.9,5.1-4.9h0.6"/>
			<path id="Rectangle_2_" class="st1" d="M8.1,16.2h1.5c2.1,0,3.8,1.7,3.8,3.8v9.5c0,2.1-1.7,3.8-3.8,3.8H8.1
				c-2.1,0-3.8-1.7-3.8-3.8V20C4.3,17.9,6,16.2,8.1,16.2z"/>
			<path id="Path_3_" class="st2" d="M4.3,22.2H1.5c-0.6,0-1.2,0.5-1.2,1.1v2.7c0,0.6,0.5,1.1,1.2,1.1h2.8"/>
			<path id="Rectangle_3_" class="st1" d="M33.5,33.2h-1.5c-2.1,0-3.8-1.7-3.8-3.8V20c0-2.1,1.7-3.8,3.8-3.8h1.5
				c2.1,0,3.8,1.7,3.8,3.8v9.5C37.3,31.5,35.6,33.2,33.5,33.2z"/>
			<path id="Path_4_" class="st2" d="M37.3,27.2h2.8c0.6,0,1.2-0.5,1.2-1.1v-2.7c0-0.6-0.5-1.1-1.2-1.1h-2.8"/>
		</g>
	</g>
</g>
</svg>
