<svg height="63" viewBox="0 0 67 63" width="67" xmlns="http://www.w3.org/2000/svg"><g fill="none" fill-rule="evenodd"><circle cx="44.279254" cy="40" fill="#fadeaa" r="22.5"/><g stroke="#171c34" transform="translate(1.040448 .5)"><path d="m29.0384921 11.4635919h-10.1936508c-5.6298461 0-10.19365082 4.5638048-10.19365082 10.1936508s4.56380472 10.1936508 10.19365082 10.1936508h21.4603174c4.4445659 0 8.0476191 3.6030532 8.0476191 8.047619 0 4.4445659-3.6030532 8.0476191-8.0476191 8.0476191h-17.7047619"/><path d="m2.21309524 58.6773365c0 .592573-.48044286 1.0730159-1.07301587 1.0730159-.59257302 0-1.07301588-.4804429-1.07301588-1.0730159v-20.3873016c0-.592573.48044286-1.0730159 1.07301588-1.0730159.59257301 0 1.07301587.4804429 1.07301587 1.0730159z"/><path d="m22.6003968 56.0431228-20.38730156.9709452v-17.0608182l20.38730156.9689333z"/><path d="m49.4257937 19.8642063-20.3873016-.9710793v-15.12415875l20.3873016-.96571428z"/><path d="m51.5718254 21.5273675c0 .5925731-.4804429 1.0730159-1.0730159 1.0730159s-1.0730158-.4804428-1.0730158-1.0730159v-20.38730155c0-.59257301.4804428-1.07301587 1.0730158-1.07301587s1.0730159.48044286 1.0730159 1.07301587z"/></g></g></svg>