<?xml version="1.0" encoding="utf-8"?>
<!-- Generator: Adobe Illustrator 24.2.1, SVG Export Plug-In . SVG Version: 6.00 Build 0)  -->
<svg version="1.1" id="Layer_1" xmlns="http://www.w3.org/2000/svg" xmlns:xlink="http://www.w3.org/1999/xlink" x="0px" y="0px"
	 viewBox="0 0 66 61" style="enable-background:new 0 0 66 61;" xml:space="preserve">
<style type="text/css">
	.st0{fill-rule:evenodd;clip-rule:evenodd;fill:#D8EEEE;}
	.st1{fill:none;stroke:#171C34;}
	.st2{fill:none;stroke:#171C34;stroke-linejoin:round;}
</style>
<g id="Agencies">
	<g id="Group" transform="translate(0.000000, -3.000000)">
		<circle id="Oval" class="st0" cx="43.5" cy="41.5" r="22.5"/>
		<g id="Icon" transform="translate(0.000000, 4.000000)">
			<path id="Fill-1" class="st1" d="M25.7,43.8l2.5,2.5c0,0-2.1,3.8-2.8,5.1c-0.2,0.4-0.2,0.7,0.2,1.1c0.4,0.4,1.1,1.1,1.5,1.5
				c0.3,0.3,0.6,0.2,0.9-0.1c2.5-2.5,10-10,10-10c1.3-1.3,1.3-3.4,0-4.7l-3.9-3.9L25.7,43.8z"/>
			<path id="Fill-3" class="st1" d="M12,32.4c0.6-0.6,1.7-0.6,2.3,0l4.4,4l4,4.3c0.6,0.6,0.6,1.6,0,2.3l0,0c-0.6,0.6-1.7,0.6-2.3,0
				l-8.3-8.3C11.4,34,11.4,33,12,32.4L12,32.4z"/>
			<path id="Fill-5" class="st1" d="M11.3,29.4l-2.5-2.5c0,0-3.8,2.1-5.1,2.8c-0.4,0.2-0.7,0.2-1.1-0.2c-0.4-0.4-1.1-1.1-1.5-1.5
				c-0.3-0.3-0.2-0.6,0.1-0.9c2.5-2.5,10-10,10-10c1.3-1.3,3.4-1.3,4.7,0l3.9,3.9L11.3,29.4z"/>
			<path id="Fill-7" class="st2" d="M48.2,21.5c0,0,8.8-9.5,6.4-21l0,0c-11.5-2.4-21,6.3-21,6.3l7.2,7.8L48.2,21.5z"/>
			<polyline id="Fill-10" class="st1" points="48.2,21.5 25.8,43.9 11.1,29.2 33.5,6.9 			"/>
			<path id="Fill-12" class="st1" d="M37.7,26c-2.4,2.4-6.2,2.4-8.6,0c-2.4-2.4-2.4-6.2,0-8.6c2.4-2.4,6.2-2.4,8.6,0
				C40,19.7,40,23.6,37.7,26"/>
			<path id="Fill-14" class="st1" d="M16.2,38.8C16.2,38.8,16.2,38.8,16.2,38.8c-2.4-2.4-6.2-2.6-8.8-0.6c-0.5,0.4-0.3,0.8,0,1.1
				l8.3,8.3c0.3,0.3,0.7,0.5,1.1,0C18.8,44.9,18.6,41.2,16.2,38.8"/>
			<line id="Stroke-16" class="st1" x1="7.8" y1="43.2" x2="1.7" y2="49.3"/>
			<line id="Stroke-18" class="st1" x1="12" y1="47.3" x2="5.9" y2="53.3"/>
			<line id="Stroke-20" class="st1" x1="10" y1="45.1" x2="0" y2="54.9"/>
		</g>
	</g>
</g>
</svg>
