<?xml version="1.0" encoding="UTF-8"?>
<svg width="65px" height="59px" viewBox="0 0 65 59" version="1.1" xmlns="http://www.w3.org/2000/svg" xmlns:xlink="http://www.w3.org/1999/xlink">
    <title>Icons/SEO Settings</title>
    <g id="Agencies" stroke="none" stroke-width="1" fill="none" fill-rule="evenodd">
        <g id="Group" transform="translate(1.000000, -5.000000)">
            <circle id="Oval" fill="#FADEAA" fill-rule="nonzero" cx="41.5" cy="41.5" r="22.5"></circle>
            <g id="Icon" transform="translate(0.000000, 6.000000)">
                <path d="M4.81090909,0 L42.7042424,0 C43.9788075,-0.00392302274 45.2025224,0.49963221 46.1051722,1.3994961 C47.0078221,2.29935999 47.5151515,3.52151242 47.5151515,4.79608362 L47.5151515,47.8566897 L0,47.8566897 L0,4.79608362 C0,3.52151242 0.507329445,2.29935999 1.40997929,1.3994961 C2.31262914,0.49963221 3.53634399,-0.00392302274 4.81090909,0 Z" id="Path" stroke="#171C34" stroke-linecap="round" stroke-linejoin="round"></path>
                <line x1="0.0148484848" y1="8.12214423" x2="47.500303" y2="8.12214423" id="Path" stroke="#171C34" stroke-linecap="round" stroke-linejoin="round"></line>
                <path d="M37.1692421,25.7031619 L34.1671169,25.4019266 C33.9411195,24.5235657 33.6030902,23.6781445 33.1614049,22.8866119 L35.1428076,20.4616679 C35.4791758,20.0843156 35.4791758,19.5135849 35.1428076,19.1362326 L33.1313837,17.1179562 C32.7580161,16.7734132 32.1838162,16.7734132 31.8104486,17.1179562 L29.4387697,19.0759855 C28.6585396,18.6150505 27.8205778,18.2604892 26.9470058,18.021662 L26.6467933,14.888815 C26.6071605,14.3802022 26.1794469,13.9906473 25.6711026,14 L22.8190836,14 C22.3162147,14.0049728 21.8967072,14.3870537 21.8433929,14.888815 L21.558191,17.9011679 C20.6768929,18.1243946 19.8289296,18.4637226 19.0364059,18.9103061 L16.6196951,16.9070915 C16.2295884,16.5923275 15.6653706,16.6248643 15.3137706,16.9824003 L13.2873361,19.0006767 C12.9576472,19.3805635 12.9576472,19.9462252 13.2873361,20.326112 L15.2537281,22.7058707 C14.7860797,23.4810507 14.4274359,24.3173582 14.1879737,25.1910619 L10.885636,25.567606 C10.3822287,25.6144279 9.99785097,26.0393375 10,26.5466207 L10,29.3330471 C10.0039433,29.8407804 10.3832295,30.2665122 10.885636,30.3271235 L13.8877612,30.6132971 C14.1382316,31.483086 14.4962688,32.3179788 14.9535156,33.0984882 L12.972113,35.538494 C12.6232935,35.9051684 12.6232935,36.4821931 12.972113,36.8488675 L14.9835369,38.8822057 C15.3621339,39.2130179 15.925875,39.2130179 16.304472,38.8822057 L18.6761509,36.9091146 C19.4539975,37.3784244 20.2924284,37.7382521 21.1679148,37.9784998 L21.4681273,41.1113468 C21.5147903,41.6164692 21.9382572,42.0021563 22.443818,42 L25.2958369,42 C25.7987059,41.9951891 26.2182134,41.6131081 26.2715276,41.1113468 L26.5717401,38.0236851 C27.4631264,37.8366529 28.3261304,37.5328128 29.1385572,37.1199793 L31.5552679,39.1231939 C31.9286355,39.4677369 32.5028355,39.4677369 32.876203,39.1231939 L34.8876269,37.1049175 C35.2310001,36.7302779 35.2310001,36.1541218 34.8876269,35.7794822 L32.9362455,33.3997235 C33.3923597,32.615198 33.7455318,31.7748223 33.9869894,30.8994706 L37.1091996,30.5982353 C37.6160855,30.5584675 38.0043178,30.1292968 37.9948265,29.6192206 L37.9948265,26.7574854 C38.0481921,26.2401031 37.6828544,25.7735438 37.1692421,25.7031619 Z M23.5155286,32 C21.6940806,32.0062325 20.048501,30.9138365 19.3471216,29.2328318 C18.6457422,27.5518272 19.0269113,25.6137948 20.3126584,24.3236146 C21.5984055,23.0334343 23.5351151,22.6455964 25.2185248,23.3411848 C26.9019346,24.0367732 28,25.678582 28,27.50004 C28,29.979258 25.994733,31.9914536 23.5155286,32 L23.5155286,32 Z" id="Shape" stroke="#171C34" stroke-linecap="round" stroke-linejoin="round"></path>
                <ellipse id="Oval" fill="#171C34" fill-rule="nonzero" cx="5.69336032" cy="3.96798026" rx="1.47497976" ry="1.44954907"></ellipse>
                <ellipse id="Oval" fill="#171C34" fill-rule="nonzero" cx="10.5354656" cy="3.96798026" rx="1.47497976" ry="1.44954907"></ellipse>
                <ellipse id="Oval" fill="#171C34" fill-rule="nonzero" cx="15.4520648" cy="3.96798026" rx="1.47497976" ry="1.44954907"></ellipse>
            </g>
        </g>
    </g>
</svg>