<?xml version="1.0" encoding="utf-8"?>
<!-- Generator: Adobe Illustrator 24.2.1, SVG Export Plug-In . SVG Version: 6.00 Build 0)  -->
<svg version="1.1" id="Layer_1" xmlns="http://www.w3.org/2000/svg" xmlns:xlink="http://www.w3.org/1999/xlink" x="0px" y="0px"
	 viewBox="0 0 68 54" style="enable-background:new 0 0 68 54;" xml:space="preserve">
<style type="text/css">
	.st0{fill-rule:evenodd;clip-rule:evenodd;fill:#D6EBFE;}
	.st1{fill:none;stroke:#171C34;}
	.st2{fill:none;stroke:#171C34;stroke-linecap:round;stroke-linejoin:round;}
</style>
<g id="Agencies">
	<g id="Group" transform="translate(0.000000, -10.000000)">
		<circle id="Oval" class="st0" cx="45.2" cy="41.5" r="22.5"/>
		<g id="Icon" transform="translate(0.000000, 10.000000)">
			<path id="Rectangle" class="st1" d="M55.5,13.5V37c0,0.7-0.3,1.3-0.7,1.8c-0.5,0.5-1.1,0.7-1.8,0.7l0,0H3c-0.7,0-1.3-0.3-1.8-0.7
				c-0.5-0.5-0.7-1.1-0.7-1.8l0,0V13.5H55.5z"/>
			<path id="Rectangle_1_" class="st1" d="M53,0.5c0.7,0,1.3,0.3,1.8,0.7c0.5,0.5,0.7,1.1,0.7,1.8l0,0v7.5h-55V3
				c0-0.7,0.3-1.3,0.7-1.8S2.3,0.5,3,0.5l0,0H53z"/>
			<path id="Rectangle_2_" class="st1" d="M43,29.5h4c1.4,0,2.5,1.1,2.5,2.5l0,0c0,1.4-1.1,2.5-2.5,2.5h-4c-1.4,0-2.5-1.1-2.5-2.5
				l0,0C40.5,30.6,41.6,29.5,43,29.5z"/>
			<line id="Line-3" class="st2" x1="8.5" y1="20.5" x2="38.5" y2="20.5"/>
			<line id="Line-3_1_" class="st2" x1="8.5" y1="25.5" x2="27.5" y2="25.5"/>
		</g>
	</g>
</g>
</svg>
