<?xml version="1.0" encoding="utf-8"?>
<!-- Generator: Adobe Illustrator 24.2.1, SVG Export Plug-In . SVG Version: 6.00 Build 0)  -->
<svg version="1.1" id="Layer_1" xmlns="http://www.w3.org/2000/svg" xmlns:xlink="http://www.w3.org/1999/xlink" x="0px" y="0px"
	 viewBox="0 0 78 54" style="enable-background:new 0 0 78 54;" xml:space="preserve">
<style type="text/css">
	.st0{fill-rule:evenodd;clip-rule:evenodd;fill:#F0E4FF;}
	.st1{fill:none;stroke:#171C34;}
</style>
<g id="Agencies">
	<g id="Group" transform="translate(0.000000, -10.000000)">
		<circle id="Oval" class="st0" cx="55.2" cy="41.5" r="22.5"/>
		<g id="Icon" transform="translate(0.000000, 10.000000)">
			<path id="Path" class="st1" d="M36.1,0.5c4.5,0,8.6,1.8,11.6,4.7c3,2.9,4.9,7,5,11.5c3.1,1,5.4,2.5,7.1,4.6
				c1.6,2,2.6,4.6,2.6,7.4c0,3.2-1.3,6.2-3.4,8.3c-2.1,2.1-5,3.4-8.3,3.4l0,0l-37.9,0c-3.4,0-6.5-1.4-8.7-3.7
				c-2.2-2.3-3.6-5.4-3.6-8.8c0-2.6,0.8-5,2.1-6.9c1.4-2,3.3-3.7,5.6-4.6c0.4-2.6,1.4-4.6,2.9-6c1.5-1.4,3.5-2.3,5.7-2.3
				c1.4,0,2.8,0.4,4,1c0.1,0.1,0.3,0.2,0.4,0.3c0.1-0.2,0.2-0.3,0.2-0.5c1.5-2.6,3.6-4.8,6.1-6.3C30.2,1.3,33,0.5,36.1,0.5z"/>
			<path id="Path_1_" class="st1" d="M39.3,14.7l3,3L28.6,31.3l-7.9-7.7l3-3l4.8,4.8L39.3,14.7z"/>
		</g>
	</g>
</g>
</svg>
