<?xml version="1.0" encoding="UTF-8"?>
<svg width="67px" height="57px" viewBox="0 0 67 57" version="1.1" xmlns="http://www.w3.org/2000/svg" xmlns:xlink="http://www.w3.org/1999/xlink">
    <title>Icons/White Label</title>
    <g id="Agencies" stroke="none" stroke-width="1" fill="none" fill-rule="evenodd">
        <g id="Group" transform="translate(1.000000, -3.000000)">
            <circle id="Oval" fill="#FADEAA" cx="40.5" cy="34.29" r="25.5"></circle>
            <g id="Icon" transform="translate(0.000000, 4.000000)" stroke="#171C34" stroke-linecap="round" stroke-linejoin="round">
                <path d="M48.5281329,26.7134503 C48.5281329,26.0584795 48.6100043,25.3918129 48.6100043,24.7251462 C48.6033677,15.5084616 43.3887971,7.08694929 35.1411826,2.9730491 C26.8935681,-1.14085109 17.0293287,-0.24063117 9.66263583,5.29824561" id="Path" stroke-dasharray="3.508772055308024"></path>
                <path d="M9.61376034,5.39416711 L48.3863847,27.1256343 C44.3274961,30.164814 39.287155,31.9649123 33.8263785,31.9649123 C20.3971388,31.9649123 9.51058905,21.0783625 9.51058905,7.64912281 C9.51058905,6.88881598 9.54548421,6.13665935 9.61376034,5.39416711 Z" id="Combined-Shape"></path>
                <path d="M9.56906858,5.36842105 C0.743149098,12.1049625 -2.40183339,23.9625265 1.92533905,34.1876634 C6.25251149,44.4128002 16.9537743,50.4107761 27.9342465,48.7654569 C38.9147187,47.1201376 47.3879923,38.24904 48.5281329,27.2046784 L9.56906858,5.36842105 Z" id="Path"></path>
                <path d="M9.56906858,5.36842105 C0.743149098,12.1049625 -2.40183339,23.9625265 1.92533905,34.1876634 C6.25251149,44.4128002 16.9537743,50.4107761 27.9342465,48.7654569 C38.9147187,47.1201376 47.3879923,38.24904 48.5281329,27.2046784 L9.56906858,5.36842105 Z" id="Path"></path>
            </g>
        </g>
    </g>
</svg>